<?xml version="1.0" encoding="utf-8"?>
<!-- Generator: Adobe Illustrator 19.0.0, SVG Export Plug-In . SVG Version: 6.00 Build 0)  -->
<svg version="1.1" id="Ebene_23" xmlns="http://www.w3.org/2000/svg" xmlns:xlink="http://www.w3.org/1999/xlink" x="0px" y="0px"
	 viewBox="0 0 841.9 595.3" style="enable-background:new 0 0 841.9 595.3;" xml:space="preserve">
<style type="text/css">
	.st0{clip-path:url(#XMLID_62_);}
	.st1{fill:#282727;}
	.st2{fill:#C6846A;}
	.st3{fill:#FFFFFF;}
	.st4{fill:#DAD7C1;}
	.st5{clip-path:url(#SVGID_2_);}
	.st6{fill:#F9B233;}
	.st7{fill:#631318;}
	.st8{clip-path:url(#SVGID_4_);}
	.st9{clip-path:url(#SVGID_6_);}
	.st10{fill:#3C3C3B;}
	.st11{fill:#878787;}
	.st12{fill:#432918;}
	.st13{fill:#E39C78;}
	.st14{fill:#4B2A14;}
	.st15{fill:#5A3313;}
	.st16{fill:#683C11;}
	.st17{fill:#AA6E59;}
	.st18{fill:#D8585B;}
</style>
<g id="XMLID_59_">
	<defs>
		<rect id="XMLID_45_" x="148.3" y="98" width="468.6" height="494.2"/>
	</defs>
	<clipPath id="XMLID_62_">
		<use xlink:href="#XMLID_45_"  style="overflow:visible;"/>
	</clipPath>
	<g id="XMLID_12_" class="st0">
		<path class="st1" d="M275.9,463.5c0.6-1.9,0-10.7,0-10.7L262,516.5c0,0,3.8,39.7,2.5,45.4c-1.3,5.7-5.7,24.4-2.5,33.3h32.8
			l20.2-63l7.6-70l-24-15.1L275.9,463.5z"/>
	</g>
	<g id="XMLID_41_" class="st0">
		<path class="st2" d="M449.4,266.8c0,0-9.2,1.2-9.9-6.8l-22.6,31.9l-44.2-3l8.3,14.6l13.9,16.3l15.3,6.6l25.2-15.3l13.9-15.3
			l-0.7-19.9L449.4,266.8z"/>
	</g>
	<g id="XMLID_17_" class="st0">
		<path class="st3" d="M472.5,305.7c0,0-1.7-14.3-6.6-20.3c-4.9-6-19.3-13.1-19.3-13.1s4.7,11-12.1,25.8
			c-17.5,15.3-21.1,20.8-26,19.7c-4.9-1.1-18.6-14.8-18.6-14.8s-6.5-4.4-11.4,2.7s-13.1,6-15.2,16.3c-2.2,10.3,13.6,54.9,13.6,54.9
			l16.9,41.3l31-6.5L472.5,305.7z"/>
	</g>
	<g id="XMLID_18_" class="st0">
		<path class="st4" d="M381.2,351.9c0,0,9.2-7.1,11.4-14.1c2.2-7.1,12-21.2,15.2-21.2s12,14.7,12.5,19.6s8.2,11.4,8.2,11.4
			s4.4-9.2,7.6-12.5c3.3-3.3,15.2-20.1,16.9-27.7c1.6-7.6,5.8-18,2-25.6c0,0,2-8.7,4.2-0.5c2.2,8.2,2,23.4,0.9,25
			c-1.1,1.6-15.2,27.7-17.4,33.2c-2.2,5.4-12.5,14.1-13.1,18.5c-0.5,4.4-16.9-16.9-17.4-23.4c-0.5-6.5-3.8-14.1-7.1-9.8
			c-3.3,4.4-4.9,17.4-7.6,21.8c-2.7,4.4-14.7,19-17.9,18.5s-14.7-41.9-14.7-41.9l3.9-10C368.7,313.1,369.8,327.4,381.2,351.9z"/>
	</g>
	<g id="XMLID_22_" class="st0">
		<defs>
			<path id="SVGID_1_" d="M400.6,341.3c0,0-10.5,9.4-9.4,18.8c1,9.4-4.2,34.5-4.2,34.5l3.1,13.6l33.4,4.2l2.1-35
				c0,0-11-36.1-15.2-38.1L400.6,341.3z"/>
		</defs>
		<clipPath id="SVGID_2_">
			<use xlink:href="#SVGID_1_"  style="overflow:visible;"/>
		</clipPath>
		<g id="XMLID_21_" class="st5">
			<g id="XMLID_38_">
				
					<rect x="346.3" y="358.8" transform="matrix(-0.6571 0.7538 -0.7538 -0.6571 921.0233 306.26)" class="st6" width="89.1" height="7.6"/>
			</g>
			<g id="XMLID_37_">
				
					<rect x="337" y="345.9" transform="matrix(-0.6571 0.7538 -0.7538 -0.6571 899.4647 299.8262)" class="st7" width="89.1" height="17.3"/>
			</g>
			<g id="XMLID_36_">
				
					<rect x="357.7" y="368.7" transform="matrix(-0.6571 0.7538 -0.7538 -0.6571 947.2853 314.0975)" class="st6" width="89.1" height="7.6"/>
			</g>
			<g id="XMLID_35_">
				
					<rect x="352" y="363.8" transform="matrix(-0.6571 0.7538 -0.7538 -0.6571 934.1995 310.1923)" class="st7" width="89.1" height="7.6"/>
			</g>
			<g id="XMLID_34_">
				
					<rect x="369" y="378.6" transform="matrix(-0.6571 0.7538 -0.7538 -0.6571 973.4962 321.9197)" class="st6" width="89.1" height="7.6"/>
			</g>
			<g id="XMLID_33_">
				
					<rect x="363.3" y="373.7" transform="matrix(-0.6571 0.7538 -0.7538 -0.6571 960.4103 318.0145)" class="st7" width="89.1" height="7.6"/>
			</g>
			<g id="XMLID_32_">
				
					<rect x="380.3" y="388.5" transform="matrix(-0.6571 0.7538 -0.7538 -0.6571 999.7582 329.7572)" class="st6" width="89.1" height="7.6"/>
			</g>
			<g id="XMLID_31_">
				
					<rect x="374.7" y="383.6" transform="matrix(-0.6571 0.7538 -0.7538 -0.6571 986.6724 325.852)" class="st7" width="89.1" height="7.6"/>
			</g>
			<g id="XMLID_30_">
				
					<rect x="391.7" y="398.4" transform="matrix(-0.6571 0.7538 -0.7538 -0.6571 1026.1301 337.6275)" class="st6" width="89.1" height="7.6"/>
			</g>
			<g id="XMLID_29_">
				
					<rect x="386.1" y="393.5" transform="matrix(-0.6571 0.7538 -0.7538 -0.6571 1013.0443 333.7222)" class="st7" width="89.1" height="7.6"/>
			</g>
			<g id="XMLID_28_">
				
					<rect x="403.1" y="408.3" transform="matrix(-0.6571 0.7538 -0.7538 -0.6571 1052.3922 345.465)" class="st6" width="89.1" height="7.6"/>
			</g>
			<g id="XMLID_27_">
				
					<rect x="397.4" y="403.4" transform="matrix(-0.6571 0.7538 -0.7538 -0.6571 1039.3063 341.5597)" class="st7" width="89.1" height="7.6"/>
			</g>
			<g id="XMLID_26_">
				
					<rect x="414.4" y="418.2" transform="matrix(-0.6571 0.7538 -0.7538 -0.6571 1078.603 353.2872)" class="st6" width="89.1" height="7.6"/>
			</g>
			<g id="XMLID_25_">
				
					<rect x="408.8" y="413.3" transform="matrix(-0.6571 0.7538 -0.7538 -0.6571 1065.5172 349.382)" class="st7" width="89.1" height="7.6"/>
			</g>
			<g id="XMLID_24_">
				
					<rect x="425.8" y="428.1" transform="matrix(-0.6571 0.7538 -0.7538 -0.6571 1104.8651 361.1247)" class="st6" width="89.1" height="7.6"/>
			</g>
			<g id="XMLID_23_">
				
					<rect x="420.1" y="423.2" transform="matrix(-0.6571 0.7538 -0.7538 -0.6571 1091.7792 357.2195)" class="st7" width="89.1" height="7.6"/>
			</g>
		</g>
	</g>
	<g id="XMLID_19_" class="st0">
		<defs>
			<path id="SVGID_3_" d="M406.4,318.3l3.7-0.5c0,0,7.3,7.8,9.4,15.2c0,0-6.3,11.5-11,13.6c0,0-7.8-3.1-12-0.5c0,0-2.6-11.5-1-14.6
				s-1.6,3.1-1.6,3.1s5.7-7.8,8.4-10.5S406.4,318.3,406.4,318.3z"/>
		</defs>
		<clipPath id="SVGID_4_">
			<use xlink:href="#SVGID_3_"  style="overflow:visible;"/>
		</clipPath>
		<g id="XMLID_88_" class="st8">
			<defs>
				<path id="SVGID_5_" d="M466.9,292.8c-4,3.3-8.2,6.8-12.4,10.3c-13.6,11.5-27,23.7-30.8,31.9c-4,8.6-1.5,12.5,1,28
					c2.6,15.3-9.1,21.2-16.4,9.2c-7.2-12-14.1-22.8-20.5-33.9c-5.3-9.1,2.4-14.5,6.4-16.4c2.5-1.2,8.6-2.9,10.9-4.4
					c9.5-6.3,29.3-34.8,29.3-34.8l13.2-11.8C456.9,281.8,466.6,293.3,466.9,292.8z"/>
			</defs>
			<clipPath id="SVGID_6_">
				<use xlink:href="#SVGID_5_"  style="overflow:visible;"/>
			</clipPath>
			<g id="XMLID_115_" class="st9">
				
					<rect x="408.7" y="304.4" transform="matrix(0.6571 0.7538 -0.7538 0.6571 387.6917 -235.9917)" class="st6" width="89.1" height="7.6"/>
			</g>
			<g id="XMLID_114_" class="st9">
				
					<rect x="418" y="291.4" transform="matrix(0.6571 0.7538 -0.7538 0.6571 384.7649 -245.7988)" class="st7" width="89.1" height="17.3"/>
			</g>
			<g id="XMLID_113_" class="st9">
				
					<rect x="397.3" y="314.2" transform="matrix(0.6571 0.7538 -0.7538 0.6571 391.257 -224.045)" class="st6" width="89.1" height="7.6"/>
			</g>
			<g id="XMLID_112_" class="st9">
				
					<rect x="403" y="309.3" transform="matrix(0.6571 0.7538 -0.7538 0.6571 389.4805 -229.9978)" class="st7" width="89.1" height="7.6"/>
			</g>
			<g id="XMLID_111_" class="st9">
				
					<rect x="386" y="324.1" transform="matrix(0.6571 0.7538 -0.7538 0.6571 394.8154 -212.1215)" class="st6" width="89.1" height="7.6"/>
			</g>
			<g id="XMLID_110_" class="st9">
				
					<rect x="391.7" y="319.2" transform="matrix(0.6571 0.7538 -0.7538 0.6571 393.0388 -218.0743)" class="st7" width="89.1" height="7.6"/>
			</g>
			<g id="XMLID_109_" class="st9">
				
					<rect x="374.7" y="334" transform="matrix(0.6571 0.7538 -0.7538 0.6571 398.3807 -200.1748)" class="st6" width="89.1" height="7.6"/>
			</g>
			<g id="XMLID_108_" class="st9">
				
					<rect x="380.3" y="329.1" transform="matrix(0.6571 0.7538 -0.7538 0.6571 396.6042 -206.1276)" class="st7" width="89.1" height="7.6"/>
			</g>
			<g id="XMLID_107_" class="st9">
				
					<rect x="363.3" y="343.9" transform="matrix(0.6571 0.7538 -0.7538 0.6571 401.9609 -188.1781)" class="st6" width="89.1" height="7.6"/>
			</g>
			<g id="XMLID_106_" class="st9">
				
					<rect x="368.9" y="339" transform="matrix(0.6571 0.7538 -0.7538 0.6571 400.1844 -194.1309)" class="st7" width="89.1" height="7.6"/>
			</g>
			<g id="XMLID_105_" class="st9">
				
					<rect x="351.9" y="353.8" transform="matrix(0.6571 0.7538 -0.7538 0.6571 405.5262 -176.2313)" class="st6" width="89.1" height="7.6"/>
			</g>
			<g id="XMLID_104_" class="st9">
				
					<rect x="357.6" y="348.9" transform="matrix(0.6571 0.7538 -0.7538 0.6571 403.7497 -182.1842)" class="st7" width="89.1" height="7.6"/>
			</g>
			<g id="XMLID_103_" class="st9">
				
					<rect x="340.6" y="363.7" transform="matrix(0.6571 0.7538 -0.7538 0.6571 409.0846 -164.3079)" class="st6" width="89.1" height="7.6"/>
			</g>
			<g id="XMLID_102_" class="st9">
				
					<rect x="346.3" y="358.8" transform="matrix(0.6571 0.7538 -0.7538 0.6571 407.3081 -170.2607)" class="st7" width="89.1" height="7.6"/>
			</g>
			<g id="XMLID_101_" class="st9">
				
					<rect x="329.3" y="373.6" transform="matrix(0.6571 0.7538 -0.7538 0.6571 412.6499 -152.3611)" class="st6" width="89.1" height="7.6"/>
			</g>
			<g id="XMLID_100_" class="st9">
				
					<rect x="334.9" y="368.7" transform="matrix(0.6571 0.7538 -0.7538 0.6571 410.8734 -158.314)" class="st7" width="89.1" height="7.6"/>
			</g>
		</g>
	</g>
	<g id="XMLID_6_" class="st0">
		<path d="M368.6,313.1c0,0-20.9,12.3-30.8,18.5c-10,6.2-51.2,43.6-58.3,59.3c-7.1,15.6-22.8,36.5-21.8,49.8c0,0-7.6,2.8-8.5,6.6
			s-10.9,110,8.5,131.3s32.2-22.3,29.9-36.5c-2.4-14.2-10.9-59.7-7.1-66.4c3.8-6.6,13.7-10.9,19.4-10c5.7,0.9-1.4,62.6-3.8,71.1
			c-2.4,8.5-9,53.7-6.2,59.4H379c0,0,5.7-125.3,7.6-140.5c1.9-15.2,9-63.5,6.2-73.5S368.6,313.1,368.6,313.1z"/>
	</g>
	<g id="XMLID_11_" class="st0">
		<path d="M457.1,274.4c0,0,37.6,37.3,44.2,43.5c6.6,6.2,25.1,20.9,29.9,29.4s6.6,24.2,10.9,32.2s7.1,33.2,3.3,48.8
			c-3.8,15.6,7.1,45,6.2,57.8c-0.9,12.8-2.8,83.9-10.9,107.1c0,0-7.6,13.3-26.1,13.7c-18.5,0.5-45.5-19-69.2-42.2
			c-23.7-23.2-30.8-24.2-37.9-33.2c-7.1-9-25.1-27.5-25.1-27.5s-7.5,73.6,16.7,92.1l-24.7-0.9c0,0-13.3-84.5-3.4-111.6
			c10-27,50.3-105.7,53.1-112.4c2.8-6.6,25.6-47.1,30.8-55.9C461.8,303.7,463.3,289,457.1,274.4z"/>
	</g>
	<g id="XMLID_5_" class="st0">
		<polygon class="st4" points="473.9,409 483.6,418.9 461.5,600 333.7,584.6 321.4,574.4 		"/>
	</g>
	<g id="XMLID_3_" class="st0">
		<polygon class="st10" points="347.4,393.5 474.3,410 452.1,592.1 321.4,574.4 		"/>
	</g>
	<g id="XMLID_15_" class="st0">
		<polygon class="st1" points="396.4,510.2 383.8,546.2 397.1,595.3 494.2,595.3 470.2,548.1 		"/>
	</g>
	<g id="XMLID_8_" class="st0">
		<path d="M551.6,486.2c3.2,19.6-2.8,83.9-10.9,107.1c0,0-7.6,13.3-26.1,13.7c-18.5,0.5-45.5-19-69.2-42.2
			c-23.7-23.2-30.8-24.2-37.9-33.2c-7.1-9-20.8-15.4-20.8-15.4s-3.9,61.4,20.3,79.9l-17.4,0.1c0,0-20-56.2-16-83.5
			c0.9-6.1,32.8-7.3,53.7-13.8c22.8-7,24.8-24.8,45-20.3C524.3,490.3,550.4,479.1,551.6,486.2z"/>
	</g>
	<g id="XMLID_10_" class="st0">
		<path class="st11" d="M351,462.4c0,0-14.7-6.6-19.9-5.2s-20.4,8.5-25.6,10s-22.8,7.1-23.2,14.2s0.5,19-1.9,25.1s-7.1,18-9,19.9
			c0,0,19,2.4,25.1-2.4c6.2-4.7,21.3-15.6,24.2-15.6s18,1.4,20.4-1.9c2.4-3.3,6.2-11.4,6.2-11.4L351,462.4z"/>
	</g>
	<g id="XMLID_9_" class="st0">
		<path class="st11" d="M378.5,506.5c0,0-5.7-0.4-7.7,7c-2,7.6-1.3,23.4,2.8,31.6c3.6,7.3,4,10.3,9.2,10.3s17.1,0.5,22.3,1.9
			c5.2,1.4,25.1,4.7,28.4,4.3c3.3-0.5,7.1-1.4,7.1-1.4l-55.9-53.6H378.5z"/>
	</g>
	<g id="XMLID_2_" class="st0">
		<path id="XMLID_60_" class="st12" d="M393.9,488.9c-1,0-1.9-0.5-2.5-1.3c-0.9-1.4-0.5-3.2,0.8-4.2l166.3-110.5
			c1.4-0.9,3.2-0.5,4.2,0.8s0.5,3.2-0.8,4.2L395.6,488.4C395.1,488.7,394.5,488.9,393.9,488.9z"/>
	</g>
	<g id="XMLID_4_" class="st0">
		<path id="XMLID_58_" class="st13" d="M344.1,458.8c0,0,16-1,20.1-2.2c4.2-1.2,10.7-3.7,14.3-3.2c3.7,0.5,18.8,1.8,21.1,1.8
			c2.3,0,14,1.7,17.3,1.3c3.3-0.3,7.3-1.2,7.7,0.5c0.3,1.7-2.5,6.2-5.2,6.2s3.3,0.3,7.5,3.2s6.5,4.8,9.2,6.2s4.8,3.2,6.8,5.3
			s2.8,4.7,1.2,6.5c-1.7,1.8-9.5,1.2-11.7-0.5c-2.2-1.7-12-8.4-16.5-8.9c-4.5-0.5-13.7-1.7-15-2.5c0,0,3.7,2.3,9.2,3.9
			c5.5,1.7,13.9,4.7,11.4,11.4s-7,4.7-11.3,2.8c-4.3-1.8-15.6-5.7-15.6-5.7s11.4,4.9,13.3,6.7c2.1,2,2.7,4-0.1,7.5
			c-1.9,2.4-7.9-0.1-10.6-1.1c-2.7-1-8.8-2.7-8.8-2.7s6.8,2,6.2,4.8s-4.3,4.3-11.8,4.4c-7.5,0.2-15-0.4-15-0.4s-7.3-0.7-10.2-2.3
			c-2.8-1.7-6-5.5-9.5-5c-3.5,0.5-11.8-0.2-11.8-0.2s-7.3,0.3-9-4.8c-1.7-5.2-3.2-9.3-3-15c0.2-5.7,6.5-18.1,14-18.3
			S344.1,458.8,344.1,458.8z"/>
	</g>
	<g id="XMLID_7_" class="st0">
		<path class="st13" d="M356.3,511.9c0,0-12.4-4.8-18.5-3.7s-16.5,1.5-20.8,5.2c-4.3,3.7-10.4,7.8-11.7,8.5c-1.3,0.7-4.1,3.9-1.1,5
			c3,1.1,8,0.4,9.3-0.9c0,0-2.6,2.6-1.7,5.9c0.7,2.7,2.8,3.6,2.8,4.5c0,0.9-2.1,2.2-1.3,6.7c0.3,1.6,2,2.2,2,3.5
			c0,1.3-3.8,4-3.4,6.9c0.4,2.8,3.6,5.1,6.6,4.4c0,0-6,2.4-5,7.2c1,5.1,7.2,4.8,10.2,3.5c3-1.3,8.3-3.3,11.7-3.9
			c3.5-0.7,24.1-10.9,26.7-13c2.6-2.2,4.3-2.8,6.7-2.8s7.2,0.7,7.2,0.7s-4.8-13-4.8-16.1c0-3-1.1-16.9,1.1-23
			C372.4,510.4,360,513.3,356.3,511.9z"/>
	</g>
	<g id="XMLID_40_" class="st0">
		<path id="XMLID_50_" class="st13" d="M404.3,168.3c0,0-39.9,16.6-37.9,40.5s0.7,27.2,0.7,34.5c0,7.3-2,23.9,4.6,34.5
			c6.6,10.6,10,12.6,12.6,16.6s5.3,10.6,12.6,10.6c7.3,0,12,0,15.9-2.7c4-2.7,13.9-11.3,19.3-15.9c5.3-4.6,14.6-13.3,15.3-22.6
			c0.7-9.3-1.3-28.6-1.3-39.2c0-10.6-6.6-44.5-12-47.8C428.9,173.6,404.3,168.3,404.3,168.3z"/>
	</g>
	<g id="XMLID_39_" class="st0">
		<path class="st14" d="M458.6,236.9c0,0-8.3,15.9-7.2,22.5s6.6,14,5,17.5s-13.3,9.8-12.9,16.6c0.4,6.8,3.9,10.9,3.1,14.8
			c-0.7,3.9-8.7,5.5-8.5,11.3c0.2,5.7,7.9,14.2,7.8,18.5c0,0-2.2-14-1.5-17.2c0.7-3.1,10.9-7.8,10.9-11.5s-2.8-14.4-0.9-16.6
			c0,0,4.1,9.8,3.7,12.6c-0.4,2.8-6.1,7.2-5.9,15.3s6.1,14.8,6.1,18.1c0,3.3-12,10.7-11.6,16.8s8.7,14.4,8.7,19.2
			c0,0-2.4-13.7-0.7-17.4s12-11.6,12.2-14.8c0.2-3.1-6.3-17.9-5-20.7s8.3-14.8,8.5-17.9c0,0,0,15.9,1.3,21.2
			c1.3,5.4,8.9,9.8,9.1,12.9s-5.7,14.2-5.4,19.4c0,0,5.2-8.5,6.5-10.2s5.7-6.1,5.4-9.8c-0.4-3.7-8.7-14.2-8.1-16.4
			c0.6-2.2,4.2-12,4.2-14.4c0-2.4,6.3,12.6,6.3,12.6s-2.2,8.7-1.3,11.3c0.9,2.6,5.7,12.4,4.1,17.5c0,0,0.7-11.1,1.1-15
			s1.7-10.5,1.7-10.5s5.7-5,5.2-7.9c0,0,1.1,12.4,2.2,15.1c1.1,2.8,8.5,12.6,8.1,17c-0.4,4.4-6.1,10.2-5.9,14.4
			c0.2,4.2,6.8,15.3,6.8,17.9c0,0-3.3-14.8-1.8-18.1s7.8-12,7.4-14.4c-0.4-2.4-2.8-20.3-2.8-20.3s9.8,15.5,10.3,19
			c0.6,3.5-0.6,14.2,1.7,17.9c2.2,3.7,9.4,4.1,10.3,7.8c0,0-3.3-5.2-6.8-9.4c-3.5-4.2,2-12.7,0.9-15.7c-1.1-3-4.4-15.9-4.4-15.9
			l-8.7-17.5l-26.4-35.1L458.6,236.9z"/>
	</g>
	<g id="XMLID_51_" class="st0">
		<g id="XMLID_52_">
			<path class="st15" d="M378.4,371.8c0.1,0.7,0.1,1.2,0.1,1.2C378.5,372.7,378.5,372.3,378.4,371.8z"/>
		</g>
		<g id="XMLID_53_">
			<path class="st15" d="M354.2,420.2c0.2,1,0.4,1.5,0.4,1.5C354.6,421.2,354.4,420.7,354.2,420.2z"/>
		</g>
		<g id="XMLID_72_">
			<path class="st14" d="M389.2,365.5c0-5.1-4.4-14.1-4.4-19.7c0-4.6,3-4.1,5.7-21.7c1.9-12.5-4.8-25.9-4.8-25.9s-6.3-10.3-9.3-14.2
				s-10.1-15.5-10.3-20.7c-0.3-5.2-5.2-24.5-5.2-24.5l-8.6-14.1c0,0-8.8,31.9-13.1,36.3c-4.4,4.4-13.1,26.9-14.4,33.2
				c-1.3,6.3-0.6,11.3-3.1,16.3c-2.5,5-3.5,17.3-5.4,20c-1.9,2.7-8.7,4.6-9.5,8.7c-0.8,4.1,0,13.6-1.4,15.5
				c-1.4,1.9-10.1,2.7-12.8,9c-2.7,6.3,0.5,18-1.6,21.8c0,0,5.7-11.4,5.4-14.7c-0.3-3.3,11.7-4.9,13.3-7.9c1.6-3,1.6-15,5.4-19.3
				c3.8-4.4,10.6-4.9,12.5-9c0,0,3,9,1.6,11.4s-6,7.9-7.3,12s3.5,15.5,2.4,20.1c-1.1,4.6-5.2,14.2-13.1,18c0,0,16.3-3,18.8-9.8
				c2.4-6.8,0.3-19,2.7-25.3c2.4-6.3,10.9-12.5,11.4-19.9c0,0,0,12.8-0.8,17.1c-0.8,4.4-6.3,9.3-4.9,15.2c1.4,6,7.6,7.9,8.2,12.2
				c0.5,4.4-5.4,12.5-3,21.2c2.2,7.8,8.9,9.3,10.5,13.2c-1-4.5-3.8-18-1.8-23c2.4-6,5.7-9,5.4-13.9s-5.4-10.6-4.9-14.7
				c0.5-4.1,5.4-14.7,5.4-19.6s1.4-15.8,1.4-15.8s4.9,15.8,4.4,19.3c-0.5,3.5-5.4,10.3-5.2,14.7c0.3,4.4,7.3,14.2,8.2,20.4
				c0.8,6.3-4.6,19.3-3.8,25.3c0,0,10.1-19,10.3-23.7c0.3-4.6-7.6-19.9-6.5-23.4c0.7-2.2,3.6-6.1,5.6-10c2.2,5.3,5.2,12,5.7,15.9
				c-0.4-4.5-1.7-20.4-1.3-24.4c0.5-4.6,1.6-21.8,1.6-26.4c0-0.8,0.3-1.6,0.7-2.3c1.4,2.7,2.4,5.2,2.7,6.4c0.9,3.9-3.2,13.8-3,20
				c0.2,7.3,5,9.1,6,20.2c1.1,11.1-2.1,20.8-2.1,20.8S389.2,370.6,389.2,365.5z M362.2,315c0-5.2-2.2-20.1-2.2-20.1
				s10.6,30.7,10.6,34c0,1.4-0.4,4.7-0.6,8.3C366.5,328.5,362.2,318.2,362.2,315z"/>
		</g>
	</g>
	<g id="XMLID_44_" class="st0">
		<g id="XMLID_47_">
			<path id="XMLID_48_" class="st16" d="M309,385.5c-0.8,1.2-1.4,2.4-1.8,3.5C307.2,389,307.9,387.5,309,385.5z"/>
		</g>
		<g id="XMLID_49_">
			<path id="XMLID_16_" class="st16" d="M542.1,365.3c0.4,1.2,0.9,2.2,1.6,2.9C543.7,368.2,543.1,367,542.1,365.3z"/>
		</g>
		<g id="XMLID_55_">
			<path id="XMLID_14_" class="st16" d="M475,376.1c0.4,2,0.7,3.3,0.7,3.3C475.7,378.4,475.5,377.3,475,376.1z"/>
		</g>
		<g id="XMLID_43_">
			<path id="XMLID_1_" class="st16" d="M369.2,220.5c4.1,0.7,9.3,1.7,13.9,1.8c0-4.9,0.8-15.7,1.7-21.4"/>
		</g>
	</g>
	<g id="XMLID_46_" class="st0">
		<g id="XMLID_65_">
			<path class="st16" d="M539.7,347.2c-1-11-7.8-13.8-8.3-22c-0.5-8.3-2.8-11.8-7.5-16s-5.3-10.3-5.3-14.8c0-4.5-1-6.8-1-13.5
				s-6.8-13.5-6.8-13.5s-5.5-8.8-6-15.8s-2.3-12.3-5.5-15c-3.3-2.8-7.3-9.8-9-18s-7.3-15.8-7.3-15.8s-6.8-4.8-11.3-13.5
				c-4.5-8.8-18.3-25.8-27.3-32.5c-9-6.8-28.3-3-28.3-3c-8-2-18.7,2.7-24.2,4.7c-5.5,2-25.8,18.3-32,27.5
				c-6.3,9.3-10.3,17.5-15.3,23.8c-5,6.3-4.8,23.5-3.3,29.8c1.5,6.3-6.7,16.4-8,20c-3.5,9.6,0.5,14.2-1,20
				c-1.9,7.2-7.9,13.5-9.2,16.5c-2.5,5.7-0.5,16-3.3,20.6c-2.8,4.6-15.1,13.9-16.9,20.6c-1.1,4.1-1.6,10.1-2.4,16
				c1.8-6.8,4.2-14.3,6.1-16.7c2.7-3.4,10.7-7.9,16.6-13.1c-0.5,2.8-0.8,5.5-0.8,7.3c0,5.3-6.5,12.3-9.3,16.5c-2.8,4.3,0.3,19,1,23
				c0.5,2.8-3,10.5-5.2,15c3.2-5,9.1-10.7,9.5-14.3c0.5-4.5-1.2-12.1,1.9-19.3c2-4.6,8.5-9.8,9.3-17.7c1.1-11.4,5.1-17.3,5.1-17.3
				c1.6,6.9-3.4,13.9-3.7,23.4c-0.4,10.2,4.6,17.7,2.6,26c-1.2,4.8-1.5,10.6,0.5,22.1s-4,24.5-4,24.5s10.1-13.7,8.6-23.2
				c-2.2-13.9,6.7-18.1,3.4-36.4c-0.7-4-0.7-8.3-0.4-12.6c0.6,8.7,10.4,21,11.8,26.8c0.7,2.9-0.3,10.7-1.5,17.7
				c1.7-5.7,3.8-11.4,4.5-15.6c1.2-6.8-6-20.4-6.7-25.8c-0.3-2.9,0.7-7.3,2-11.4c0.7,1.8,1.4,3.3,2,4.3c2.8,4,3.4,16.4,7,26.4
				c3.4,9.6-6.7,20.5-1.2,27c5.5,6.5,8.5,18.5,8.5,18.5c2-4.8-1.8-12.5-3.8-17.8s4.3-11.8,6.5-18.8c2.3-7-3.8-15.8-3.8-26.5
				c0-10.8-3.3-16.8-6.5-21.5c-3.3-4.8-3.3-24-3.3-24c-0.3,10.3,8.2,18.2,12.7,25.2c4.5,7-1.1,15-0.3,23c1.1,10.2,9.1,24.3,9.1,24.3
				c-4.8-25.9-3.5-17.1-3.7-25.1c-0.3-9.1,2.4-15.3,2.9-19.5s-2.2-14.3-5.9-18.7c-4.8-5.6-7-15.4-5-22.6c1.5-5.4,0.3-20-0.2-23.5
				s-0.4-25.7,0.6-31.4s1.2-11.3,1.2-11.3c4,1.6,9.5,1.7,13.6,1.3c0-4.9,1.1-15.2,2-20.9c-0.7,7.6,0.1,21.5,0.1,21.5
				c2.8,0.8,10,0.6,10,0.6c0-2.3,1.5-19.5,1.5-19.5c-0.3,3.3,0.1,19.9,0.1,19.9c4.2,0.6,11.6,0.3,11.6,0.3s0.1-9.7,0.6-14.5
				s1.5-15.3,1.5-15.3c0,1.5,0,8,0.5,12s0,17.9,0,17.9c5.7,0.4,15.1,0.4,14.8,0.5l0.4-16.1c1.8,1.8,1.1,15.8,1.1,15.8
				c2.3,0.3,8.9,0.2,8.9,0.2s-0.5-11.8,0.3-10.3c0.8,1.5,1,10.3,1,10.3c2.7-0.4,5.8-0.8,8.7-1.2c-0.2,1.8,0.3,8.9,1,16.3
				c0.8,8.6,0.4,11.8,0.4,15.4s-0.9,10.8-0.9,18c0,7.2,5.2,10.6,5.2,18.7c0,8-5,7.2-4.4,14.6c0.6,7.5,2.5,16,1.1,21.3
				c-1.4,5.2-3.9,9.1-3.9,13.8c0,0,8.3-11.9,8-15.7c-0.3-3.9-1.4-13.8-0.8-19.1c0.5-4.5,5.2-7.4,6.4-12.1c2.3,6.3,7.6,14.4,6.4,18.8
				c-1.5,5.3-6.4,13.4-4.7,20.5s8.8,18.1,8.5,25.1c-0.2,5.7,4.7,12.3,6.6,17.5c-1.1-5.1-2.8-14.5-2.2-17.5c0.9-4.1-6.4-19-5.3-24.8
				c0.7-3.6,3.8-10,5.8-15.6c4,7.2,11.6,14.9,13.5,19.3c1.1,2.7,1.3,10.7,1.1,17.7c0.9-5.9,2.1-11.8,2.2-16.1
				c0.2-6.9-9-19.3-10.4-24.5c-0.4-1.6-0.5-3.7-0.4-6.1c0.9,4.4,4.4,9.8,7,11.3c3,1.8,6.5,6,7.3,9.5c0.8,3.5,3.7,11.3,5.9,13.3
				c2.3,2-0.3,19-0.3,19c1.3-2.3,5.8-18.8,2.8-21.3s-1.9-10.3-2.9-15.1s-5.3-6-8.8-10.3s-2.5-19.8-2.5-19.8
				c1.3,7.8,9.8,10,13.5,12.3s4.8,8.5,4,12.5c-0.8,4,2.8,19,8.8,22.8c6,3.8,6.5,13.3,6.3,16.3c-0.3,3-9.8,8-9.8,8s7.5-3,10.5-5.3
				c3-2.3,2-16-0.8-20.5c-2.8-4.5-3.5-21.3-3.5-21.3c0,3.8,6.8,16.8,9.5,20s7.8,7.5,9.3,12c1,3.1,4.4,9.4,6.4,13.1
				C540.8,361.5,540.5,355.5,539.7,347.2z M469,290.8c0.3-1.7,1-4,1.9-6.3c0.8,4,0.6,9.8,0.4,15.4
				C469.8,296.6,468.6,293.4,469,290.8z"/>
		</g>
		<g id="XMLID_68_">
			<path class="st16" d="M352.2,385.3c-1.1,3.6-2,7.2-2.5,10.5C349,400.6,350.8,393.6,352.2,385.3z"/>
		</g>
		<g id="XMLID_70_">
			<path class="st16" d="M487.9,355.2c-0.5,3.7-1,7.4-0.9,10.8C487,370.8,487.7,363.7,487.9,355.2z"/>
		</g>
		<g id="XMLID_71_">
			<path class="st16" d="M298.5,363.9c1-3.2,1.6-6.9,2.1-10.6C298.5,361.5,297.2,368.5,298.5,363.9z"/>
		</g>
	</g>
	<g id="XMLID_87_" class="st0">
		<polygon class="st4" points="372.1,238.5 375.4,236.4 378.8,234.8 382.9,234.6 385.4,235.3 388.7,236.9 389.6,238.5 388.3,239.7 
			384.7,240.9 380.8,240.6 375.6,239.3 		"/>
	</g>
	<g id="XMLID_85_" class="st0">
		<polygon class="st4" points="412.9,239.9 417.4,237.8 423.2,236.6 429.3,238.6 431.7,239.9 430.1,240.7 426.3,242.5 422.8,243 
			419.2,242.8 414.5,241.8 411.5,240.7 		"/>
	</g>
	<g id="XMLID_79_" class="st0">
		<g id="XMLID_122_">
			<path class="st12" d="M419.1,238.4c-0.5,1.1,0.3,2.3,1.4,2.4c1.1,0.1,2.5-0.6,2.8-1.8c0.3-1.3-0.9-2.2-2.1-2.3
				c-1.1-0.1-2.3,0.4-2.9,1.3c-1.5,2,0.1,4.6,2.3,5.1c2.5,0.5,4.9-2,3.8-4.4c-1-2.1-4-2.4-5.2-0.4c-0.3,0.6,1.1,0.4,1.3,0
				c0.4-0.6,0.8-0.7,1.4-0.3c0.5,0.3,1,0.9,1.1,1.5c0.2,0.7,0.1,1.5-0.2,2.1c-0.7,1.2-2.1,0.7-2.9-0.2c-0.8-0.9-1.1-2.8,0-3.6
				c0.9-0.7,2.2,0.4,2,1.5c-0.2,0.8-0.9,0.9-1.3,0.2c-0.2-0.4-0.2-0.8,0-1.2C420.8,237.8,419.3,237.9,419.1,238.4z"/>
		</g>
	</g>
	<g id="XMLID_80_" class="st0">
		<g id="XMLID_121_">
			<path class="st12" d="M385.4,236.4c-1-0.6-3.7,0.1-2.8,1.7c0.7,1.2,3,0.4,3.2-0.9c0.3-1.8-2.3-1.5-3.2-0.8
				c-0.7,0.5-0.9,1.4-0.4,2.1c0.5,0.7,1.3,0.7,2,0.5c0.6-0.2,1.5-0.6,1.5-1.4c0-0.8-0.8-1.2-1.5-1.2c-1.7,0-2.5,2.1-0.8,2.9
				c1.2,0.6,3.1-0.3,3.2-1.7c0.2-1.9-2.5-2.4-3.9-1.9c-2.2,0.7-1.1,3.1,0.5,3.9c1.3,0.7,4.1,0.1,3.9-1.8c-0.3-1.9-2.6-3.7-4.5-3.6
				c-1.6,0.1-2.6,1.2-2.7,2.8c-0.1,0.9,0,1.8,0.3,2.6c0.5,1,1.3,1.3,2.4,1.3c0.9,0,1.8-0.1,2.7-0.2c0.6-0.1,1.1-0.2,1.5-0.8
				c0.4-0.6,0.6-1.5,0.6-2.2c0-1.1-0.7-1.7-1.6-2.2c-1.4-0.7-3.3-0.8-4.4,0.4c-1.3,1.4-0.7,3.8,1.3,4.1c1.7,0.3,4.2-1,3.5-3
				c-0.6-1.9-3.2-1.9-4.4-0.5c-0.7,0.7-0.8,1.8-0.1,2.6c0.7,0.8,2,0.9,3,0.8c0.4,0,1.6-0.7,0.6-0.7c-0.9,0-1.9-0.1-2.4-0.9
				c-0.6-0.9,0.1-2.7,1.2-1.8c0.5,0.5,0.9,1.4,0.6,2.1c-0.3,0.7-1.3,0.9-1.9,0.5c-0.3-0.2-0.6-0.6-0.7-1c-0.2-0.6-0.1-1.3,0.3-1.8
				c0.7-1,2.1-0.3,2.9,0.4c0.5,0.5,0.7,0.9,0.6,1.6c0,0.3-0.1,0.7-0.1,1c0,0.2-0.1,0.3-0.2,0.5c-0.1,0.4-0.6,0.3,0.2,0.3
				c0.9,0,0.2-0.1,0-0.1c-0.2,0-0.4,0.1-0.6,0.1c-1.2,0.2-2.8,0.4-3.5-1c-0.5-1.1-0.6-2.7,0-3.8c0.9-1.8,3.4,1.2,3.8,2.1
				c0.3,0.6,0.4,1.1-0.3,1.4c-0.6,0.3-1.1-0.2-1.5-0.6c-0.3-0.3-0.6-0.8-0.7-1.3c-0.2-0.9,0.5-0.9,1.2-0.7c0.5,0.2,1,0.6,1.1,1.2
				c0,0.4-0.2,1-0.5,1c-0.4,0-0.7-0.6-0.7-0.9c0-0.2,0-0.4,0-0.6c0-0.5,0,0,0,0.1c0,0.1,0.4,0.6,0.2,0.8c-0.3,0.3-0.5,0-0.7-0.3
				c-0.2-0.3-0.2-1.3,0.3-1.3c0.5,0,0.7,0.9,0.4,1.2c-0.4,0.5-0.3-0.9-0.2-0.9C384.5,237.1,385.7,236.5,385.4,236.4L385.4,236.4z"/>
		</g>
	</g>
	<g id="XMLID_83_" class="st0">
		<g id="XMLID_120_">
			<path class="st12" d="M421.4,239.3c0.4-0.4,0.4-0.9,0-1.3c-0.3-0.3-1.1,0-1.3,0.3c-0.5,0.5-0.6,1.2-0.2,1.8
				c0.2,0.4,1.2,0,1.4-0.2c0.5-0.5,0.3-1.2-0.3-1.5c-0.4-0.2-1,0.1-1.3,0.3c-0.6,0.6-0.4,1.6,0.4,1.9c0.4,0.1,1.1-0.1,1.3-0.4
				c0.3-0.6,0.4-1.2,0.4-1.9c0-0.4-1.4,0-1.4,0.3c-0.2,0.8-0.1,1.5,0.3,2.2c0.2,0.4,1.3,0,1.4-0.3c0.4-0.8,0.5-1.7,0.3-2.5
				c-0.1-0.4-1.3,0.1-1.4,0.3c-0.4,0.7-0.5,1.4-0.3,2.2c0.1,0.4,1.3-0.1,1.4-0.3c0.4-0.8,0.7-2.3-0.7-2.1c-1.1,0.1-1.6,0.8-1.2,1.9
				c0.2,0.4,1.3,0,1.4-0.3c0.3-0.8,0.4-1.5,0.1-2.3c-0.1-0.2-0.5-0.1-0.6-0.1c-0.6,0.1-1.3,0.3-1.5,1c-0.2,0.6,0.4,0.9,0.9,0.9
				c0.5,0,1.2-0.2,1.5-0.6c0.3-0.5-0.1-1-0.7-1c-0.3,0-1,0.1-1.2,0.4c-0.4,0.8-0.5,1.7-0.3,2.5c0.1,0.4,1.3,0,1.4-0.2
				c0.4-0.6,0.5-1.2,0.1-1.9c-0.2-0.4-1.3,0-1.4,0.3c-0.5,0.9-0.3,1.9,0.4,2.6c0.3,0.3,1.1,0,1.3-0.3c0.6-0.8,0.6-1.8-0.1-2.6
				c-0.2-0.3-1.2,0-1.3,0.3c-0.5,0.7-0.7,1.5-0.6,2.4c0.1,0.4,1.3,0,1.4-0.2c0.5-0.7,0.5-1.4-0.1-2.1c-0.2-0.3-1.3,0.1-1.4,0.4
				c-0.3,0.7-0.3,1.4-0.2,2.1c0.1,0.4,1.3-0.1,1.4-0.3c0.3-0.6,0.3-1.1,0-1.7c-0.2-0.4-1.4,0-1.4,0.3c-0.2,0.9-0.1,1.9,1.1,1.8
				c0.5,0,1-0.2,1.3-0.5c0.5-0.4,0.5-1.1,0.9-1.6c-0.5,0.1-0.9,0.2-1.4,0.2c0.1,0.3,0.2,0.5,0.2,0.8c0.1,0.2,0.5,0.1,0.6,0.1
				c0.2,0,0.3-0.1,0.5-0.1c-0.2,0-0.4-0.1-0.6-0.1c0.1,0.1,0.2,0.2,0.3,0.3c0.2,0,0.4,0,0.7,0c-0.1,0-0.1,0-0.2,0
				c0,0.1,0,0.2,0.1,0.3c0.1-0.1,0.3-0.2,0.4-0.4c-0.5,0.1-0.9,0.2-1.4,0.2c0,0.1,0,0.7,0,0.7c0.1,0.1,0.2,0.3,0.3,0.4
				c0.7-0.4,1.3-1,1.6-1.7c-0.5,0.1-1,0.2-1.4,0.2c0,0.2-0.2,0.9-0.5,0.9c-0.2,0.2-0.4,0.4-0.6,0.6c1.5-0.2,3.1-1.6,2.2-3.2
				c-0.1-0.3-0.8-0.1-1,0c-1.1,0.5-2,1.6-1.2,2.8c0.2,0.4,1.6-0.1,1.4-0.4c-0.4-0.7-1.5-0.6-2.1-0.2c-0.6,0.4-0.8,1.3,0,1.5
				c1.6,0.6,4.5-1.2,3.5-3c-0.2-0.4-1.6,0.1-1.4,0.4c0.3,0.5,0.3,1-0.1,1.5c-0.2,0.2-0.6,0.7-1,0.5c0-0.1-0.1-0.2-0.1-0.3
				c0.1-0.4,0-0.4-0.3,0c0.5-0.1,1-0.3,1.4-0.4c-0.3-0.5-0.4-1.7,0.3-2c-0.3,0-0.7,0-1,0c0.2,0.4,0.3,0.7,0.2,1.2
				c-0.1,0.3-0.3,1-0.7,1c-0.2,0-1.3,0.5-0.6,0.6c1.2,0.2,2.7-0.4,2.9-1.7c0.1-0.5-1.3-0.1-1.4,0.2c-0.2,0.5-0.5,0.9-1,1.2
				c-0.5,0.3-0.1,0.5,0.3,0.4c0.9-0.1,1.9-0.7,1.7-1.7c-0.1-0.4-1.2,0.1-1.4,0.2c-0.1,0.1-0.3,0.2-0.4,0.4c-0.1,0.1-0.1,0.2,0.1,0.3
				c0.6,0.1,2.4-0.3,1.8-1.2c-0.1-0.2-0.4-0.2-0.6-0.1c-0.2,0-0.3,0.1-0.5,0.1c0.2,0,0.4,0.1,0.6,0.1c-0.1-0.3-0.2-0.5-0.2-0.8
				C422.7,238.7,421.6,239.2,421.4,239.3c-0.2,0.3-0.8,1.1-0.7,1.4c0.3,0.1,0.4,0.1,0.2-0.1c-0.1-0.1-0.1-0.2-0.1-0.3
				c-0.1-0.3,0-0.6,0.1-0.9c-0.5,0.1-1,0.2-1.4,0.3c0.3,0.5,0.3,1,0,1.6c0.5-0.1,1-0.2,1.4-0.3c-0.1-0.7,0-1.3,0.2-2
				c-0.5,0.1-0.9,0.2-1.4,0.4c0.4,0.5,0.4,1.1,0.1,1.7c0.5-0.1,0.9-0.2,1.4-0.2c-0.2-0.8,0-1.5,0.4-2.1c-0.4,0.1-0.9,0.2-1.3,0.3
				c0.5,0.6,0.6,1.5,0.1,2.1c0.4-0.1,0.9-0.2,1.3-0.3c-0.7-0.6-0.8-1.6-0.4-2.4c-0.5,0.1-1,0.2-1.4,0.3c0.3,0.5,0.3,1.1,0,1.6
				c0.5-0.1,0.9-0.2,1.4-0.2c-0.1-0.8,0-1.6,0.3-2.4c-0.4,0.1-0.8,0.3-1.2,0.4c0.5,0-0.2,0.6,0.5,0.4c0.3,0,0.4-0.1,0.1-0.3
				c0.1-0.3,0.1-0.4-0.2-0.3c-0.2,0-0.4-0.1-0.6-0.1c0.2,0.8,0.2,1.5-0.1,2.2c0.5-0.1,1-0.2,1.4-0.3c-0.1-0.2-0.2-0.3-0.2-0.5
				c0-0.1,0-0.3,0-0.4c-0.4,0-0.6,0.1-0.5,0.3c-0.1,0.2,0,0.5,0,0.7c-0.1,0.2-0.2,0.5-0.3,0.7c0.5-0.1,1-0.2,1.4-0.3
				c-0.2-0.7-0.1-1.4,0.3-2c-0.5,0.1-1,0.2-1.4,0.3c0.2,0.8,0.1,1.6-0.3,2.4c0.5-0.1,1-0.2,1.4-0.3c-0.4-0.7-0.5-1.3-0.3-2.1
				c-0.5,0.1-1,0.2-1.4,0.3c0,0.6-0.1,1.2-0.4,1.7c0.4-0.1,0.9-0.3,1.3-0.4c-0.5-0.2-0.7-1-0.3-1.4c-0.4,0.1-0.8,0.2-1.3,0.3
				c0.4,0.2,0.4,0.7,0.2,0.9c0.5-0.1,0.9-0.2,1.4-0.2c-0.3-0.5-0.3-1,0.1-1.4c-0.4,0.1-0.9,0.2-1.3,0.3c0.3,0.2,0.3,0.5,0.1,0.8
				c-0.2,0.2,0.2,0.3,0.4,0.3C420.7,239.7,421.2,239.6,421.4,239.3L421.4,239.3z"/>
		</g>
	</g>
	<g id="XMLID_118_" class="st0">
		<g id="XMLID_117_">
			<path class="st12" d="M418.6,240.6c0.2,0.1,0.4,0.2,0.5,0.3c0.4,0.3,1.8-0.4,1.1-0.7c-0.2-0.1-0.4-0.2-0.5-0.3
				C419.3,239.7,418,240.3,418.6,240.6L418.6,240.6z"/>
		</g>
	</g>
	<g id="XMLID_119_" class="st0">
		<g id="XMLID_116_">
			<path class="st12" d="M382.2,234.9c-0.5,0.1-0.9,0.3-1.2,0.7c-0.2,0.2-0.2,0.5,0.1,0.5c0.3,0.1,0.8,0,1-0.3
				c0.1-0.1,0.1-0.1,0.3-0.2c0.2,0,0.7-0.3,0.6-0.6C382.9,234.7,382.4,234.8,382.2,234.9L382.2,234.9z"/>
		</g>
	</g>
	<g id="XMLID_132_" class="st0">
		<g id="XMLID_99_">
			<path class="st12" d="M381.7,235c-0.3,0.3-0.4,0.5-0.5,0.9c-0.1,0.5,0.8,0.3,1,0.2c0.1,0.1,0.2,0.1,0.3,0.2c0.4,0,0.9,0,1.3,0
				c0,0,0-0.1,0.1-0.1c-0.4,0.1-0.8,0.1-1.3,0.2c0,0.1,0.1,0.2,0.1,0.4c0,0.2,0.2,0.3,0.4,0.3c0,0.1,0,0.2,0,0.2
				c-0.2,0.3,0.2,0.4,0.4,0.4c0,0,0,0,0-0.1c0.4,0,0.8,0.1,1.2,0.1c0-0.1,0.1-0.1,0.1-0.2c-0.2,0.1-0.4,0.3-0.6,0.4
				c0.1,0,0.1,0,0.2-0.1c-0.3,0-0.5-0.1-0.8-0.1c0,0.7-0.2,1.3-0.7,1.7c-0.1,0.1-0.2,0.3-0.1,0.4c0.6,0.4,1.1,0.4,1.8,0.3
				c-0.2-0.1-0.4-0.3-0.7-0.4c-0.1,0.1-0.2,0.2-0.4,0.2c-0.3,0.1-0.7,0.5-0.2,0.6c0.7,0.2,1.3,0.1,2-0.2c-0.3,0-0.6,0-1,0
				c0,0,0,0,0,0c0.2-0.1,0.5-0.2,0.7-0.3c-0.3,0-1-0.4-1.4-0.5c-0.4-0.1-1.7,0.5-1.2,0.7c0.8,0.3,1.7,0.8,2.5,0.5
				c0.5-0.1,1-0.5,0.7-1c-0.2-0.2-0.8-0.1-1,0c-0.2,0-0.4,0-0.5,0c-0.1,0.2-0.1,0.4-0.2,0.6c0.4-0.2,0.7-0.3,1-0.6
				c0.5-0.4-0.4-0.5-0.7-0.4c-0.1,0-0.2-0.1-0.3-0.1c0,0.1-0.1,0.3-0.1,0.4c0.7-0.6,1.1-1.4,1-2.3c0-0.3-0.7-0.2-0.8-0.1
				c-0.5,0.1-0.7,0.2-0.9,0.7c-0.2,0.5,1,0.2,1.2,0.1c0.8-0.4,0.6-1-0.3-1.1c0.1,0.1,0.3,0.3,0.4,0.4c0.4-0.7,0-1-0.7-1
				c0.1,0.1,0.3,0.2,0.4,0.3c0-0.3,0-0.5-0.2-0.7c-0.3-0.3-1,0-1.3,0.2c-0.2,0.2-0.3,0.3-0.4,0.5c-0.1,0.6,1.1,0.1,1.3,0
				c0.4-0.3,0.4-0.8,0-1.1c-0.6-0.4-1.4-0.1-2,0.2c0.3,0.1,0.7,0.1,1,0.2c0.1-0.2,0.1-0.3,0.2-0.5
				C383.5,234.7,382.1,234.7,381.7,235L381.7,235z"/>
		</g>
	</g>
	<g id="XMLID_133_" class="st0">
		<g id="XMLID_98_">
			<path class="st12" d="M385.3,239.4c-0.1,0-0.1,0.1-0.2,0.1c-0.2,0.1-0.6,0.3-0.4,0.6c0.2,0.2,0.7,0.1,1,0c0.1,0,0.1-0.1,0.2-0.1
				c0.2-0.1,0.6-0.3,0.4-0.6C386.1,239.2,385.6,239.3,385.3,239.4L385.3,239.4z"/>
		</g>
	</g>
	<g id="XMLID_134_" class="st0">
		<g id="XMLID_95_">
			<path class="st12" d="M384.1,235.1c0.1-0.1,0.1-0.3-0.1-0.3c-0.3-0.1-0.7,0-0.9,0.1c-0.1,0-0.7,0.3-0.4,0.4c0,0,0,0.1,0,0.1
				c-0.1,0.2,0.5,0.2,0.6,0.2C383.5,235.5,383.9,235.4,384.1,235.1L384.1,235.1z"/>
		</g>
	</g>
	<g id="XMLID_135_" class="st0">
		<g id="XMLID_93_">
			<path class="st12" d="M419.5,241.5c0,0.2,0,0.4,0.1,0.6c0.3,0.5,1.7,0,1.3-0.6c0,0,0,0,0-0.1
				C421.1,240.7,419.6,240.9,419.5,241.5L419.5,241.5z"/>
		</g>
	</g>
	<g id="XMLID_136_" class="st0">
		<g id="XMLID_92_">
			<path class="st12" d="M422.2,241.9c-0.4,0-0.9,0.1-1.2,0.3c0,0-0.3,0.2-0.1,0.3c0.3,0.2,0.6,0.1,1,0.1c0.2,0,0.8-0.1,0.8-0.4
				c0-0.2-0.5-0.2-0.6-0.1c0,0,0.1,0,0.1,0c0,0.1-0.1,0.2-0.1,0.3c0,0,0.1,0,0.1-0.1c-0.3,0.1-0.7,0.2-1,0.3c0,0,0.1,0,0.1,0
				c0.3,0,0.8-0.1,1-0.3C422.5,242.1,422.5,241.9,422.2,241.9L422.2,241.9z"/>
		</g>
	</g>
	<g id="XMLID_137_" class="st0">
		<g id="XMLID_91_">
			<path d="M420.6,239.5c-0.5,0.4-0.2,0.9,0.4,0.9c0.6,0,1.2-0.4,1-1.1c-0.1-0.6-1.6-0.2-1.4,0.4c0,0,0.1,0,0.1,0
				c0.2-0.1,0.3-0.2,0.5-0.3c0,0-0.1,0-0.1,0c0.2,0,0.4,0,0.5,0c0.1,0.1,0.1,0.2,0.2,0.3c0.2-0.2,0.1-0.5-0.2-0.6
				C421.3,239.1,420.8,239.3,420.6,239.5L420.6,239.5z"/>
		</g>
	</g>
	<g id="XMLID_138_" class="st0">
		<g id="XMLID_90_">
			<path d="M421.7,238.9c-0.4-0.3-1.2-0.1-1.5,0.3c-0.3,0.4-0.2,1.1,0.3,1.4c0.5,0.3,1.4,0.1,1.6-0.5c0.2-0.5-0.1-1-0.6-1.2
				c-0.4-0.1-1,0.1-1.2,0.5c-0.1,0.4,0,0.8,0.4,1c0.4,0.2,1,0,1.3-0.4c0.2-0.2,0.1-0.6-0.2-0.7c-0.3-0.1-0.8,0-1,0.3
				c0,0-0.1,0.1-0.1,0.1c0.2-0.1,0.4-0.2,0.7-0.3c0,0-0.1,0-0.1,0c0.2,0.1,0.4,0.1,0.6,0.2c-0.1-0.1-0.1-0.2-0.1-0.4
				c-0.4,0.2-0.8,0.4-1.2,0.5c0,0,0,0.2,0,0.1c0.2-0.1,0.4-0.2,0.7-0.3c-0.1,0-0.1,0-0.2,0c0.2,0,0.3,0.1,0.5,0.1
				c-0.2-0.1-0.1-0.3-0.1-0.5c-0.1,0.1-0.2,0.2-0.4,0.3c-0.1,0-0.1,0-0.2,0.1c-0.2,0-0.3-0.1-0.5-0.1c0,0,0,0,0.1,0.1
				C421.1,240.1,422.3,239.4,421.7,238.9L421.7,238.9z"/>
		</g>
	</g>
	<g id="XMLID_139_" class="st0">
		<g id="XMLID_89_">
			<path d="M384.3,237c-0.4-0.3-1.2-0.1-1.5,0.3c-0.3,0.4-0.2,1.1,0.3,1.4c0.5,0.3,1.4,0.1,1.6-0.5c0.2-0.5-0.1-1-0.6-1.2
				c-0.4-0.1-1,0.1-1.2,0.5c-0.1,0.4,0,0.8,0.4,1c0.4,0.2,1,0,1.3-0.4c0.2-0.2,0.1-0.6-0.2-0.7c-0.3-0.1-0.8,0-1,0.3
				c0,0-0.1,0.1-0.1,0.1c0.2-0.1,0.4-0.2,0.7-0.3c0,0-0.1,0-0.1,0c0.2,0.1,0.4,0.1,0.6,0.2c-0.1-0.1-0.1-0.2-0.1-0.4
				c-0.4,0.2-0.8,0.4-1.2,0.5c0,0,0,0.2,0,0.1c0.2-0.1,0.4-0.2,0.7-0.3c-0.1,0-0.1,0-0.2,0c0.2,0,0.3,0.1,0.5,0.1
				c-0.2-0.1-0.1-0.3-0.1-0.5c-0.1,0.1-0.2,0.2-0.4,0.3c-0.1,0-0.1,0-0.2,0.1c-0.2,0-0.3-0.1-0.5-0.1c0,0,0,0,0.1,0.1
				C383.6,238.2,384.9,237.5,384.3,237L384.3,237z"/>
		</g>
	</g>
	<g id="XMLID_42_" class="st0">
		<g id="XMLID_86_">
			<path class="st17" d="M397.1,245.7c-0.2,2.8-0.2,5.6-1.4,8.2c-0.9,2.1-3.2,4.4-3,6.9c0.2,4.1,6.2,4.9,9.3,4.7
				c0.7-0.1,1.2-0.9,0.2-0.8c-2.4,0.2-6.7-0.5-7.8-3.2c-0.9-2.2,1.1-4.4,2-6.2c1.7-3.1,1.9-6.3,2.1-9.8
				C398.6,244.9,397.1,245.2,397.1,245.7L397.1,245.7z"/>
		</g>
	</g>
	<g id="XMLID_270_" class="st0">
		<g id="XMLID_84_">
			<path class="st17" d="M412,240.5c3.8-1.8,7.8-4.4,12.2-3.3c2.5,0.6,4.7,2.3,6.9,3.5c0.4,0.2,1.6-0.4,1.4-0.5
				c-3.6-2-6.5-4-10.7-3.9c-4,0.1-7,2.3-10.6,3.9C410.3,240.7,411.7,240.7,412,240.5L412,240.5z"/>
		</g>
	</g>
	<g id="XMLID_263_" class="st0">
		<g id="XMLID_82_">
			<path class="st17" d="M372.2,238.8c2.9-1.2,5.3-3.6,8.6-3.8c3.4-0.2,6.5,1.4,8.6,4c0.4,0.5,1.8,0,1.3-0.7
				c-2.1-2.7-5.2-4.4-8.7-4.5c-4.3-0.2-6.8,2.4-10.5,4C370.7,238.2,371.5,239.1,372.2,238.8L372.2,238.8z"/>
		</g>
	</g>
	<g id="XMLID_244_" class="st0">
		<g id="XMLID_81_">
			<path class="st17" d="M411.1,241.3c3.8,0.9,8,2.5,12,2.2c2.9-0.2,5.5-1.5,8-2.7c0.9-0.4-0.4-0.5-0.9-0.3
				c-3.6,1.8-7.5,2.6-11.5,1.7c-2.2-0.5-4.4-1.1-6.6-1.6C411.6,240.5,410.3,241.1,411.1,241.3L411.1,241.3z"/>
		</g>
	</g>
	<g id="XMLID_141_" class="st0">
		<g id="XMLID_78_">
			<path class="st17" d="M372.4,238.9c5.6,1.4,12.4,4.4,17.5,0.1c0.6-0.5-0.8-0.5-1.2-0.2c-4.1,3.5-10.8,0.5-15.4-0.7
				C372.9,238,371.6,238.7,372.4,238.9L372.4,238.9z"/>
		</g>
	</g>
	<g id="XMLID_63_" class="st0">
		<g id="XMLID_77_">
			<path class="st15" d="M409.6,233.5c7.1-4,19.1-4.6,26.1-0.6c1.1,0.6,3.6-0.9,2.2-1.7c-4.6-2.6-9.5-3.4-14.8-3
				c-4.8,0.4-10.6,1.1-14.8,3.5C406.6,232.7,408.1,234.3,409.6,233.5L409.6,233.5z"/>
		</g>
	</g>
	<g id="XMLID_73_" class="st0">
		<g id="XMLID_75_">
			<path class="st15" d="M371.4,229.9c5.6-4.6,11-1.1,16.9,0.5c0.7,0.2,3.3-1,2.4-1.2c-4.3-1.1-8.4-3.5-13-3.1
				c-3.2,0.2-6.1,1.6-8.6,3.7C367.9,230.7,370.8,230.3,371.4,229.9L371.4,229.9z"/>
		</g>
	</g>
	<g id="XMLID_74_" class="st0">
		<polygon class="st4" points="400.9,274.8 407.6,274.8 413.1,275.3 418.5,275 417.9,275.4 412.8,279.6 397.7,282.6 389,280.1 
			386.7,278.1 383.9,274.7 383.7,274.4 385.5,274.3 388.8,274.7 394.4,275.4 398.4,275.1 		"/>
	</g>
	<g id="XMLID_97_" class="st0">
		<path class="st18" d="M418.5,275C418.5,275,418.4,275,418.5,275c-4.2,0.3-13.6-1-18.5-0.2c-1.1,0.2-0.5,0.2-1.3,0.2
			c-0.8,0-0.8-0.3-2-0.4c-3.5-0.5-10.5-0.4-12.9-0.3c-0.4,0-0.4,0.1-0.4,0.1c1.2,3.6,6.6,11,16.1,11.2c8,0.2,16.1-7.4,19.1-10.5
			C418.8,275,418.8,274.9,418.5,275z M399.3,281.2c-8.3,0-13.3-4.5-15.2-6.7c2.6,0.8,8.6,2.8,14.6,3c5.5,0.2,15.7-1.8,19.7-2.6
			c0,0,0.1,0,0.1,0C414.8,277.4,406,281.3,399.3,281.2z"/>
	</g>
</g>
</svg>
