<?xml version="1.0" encoding="utf-8"?>
<!-- Generator: Adobe Illustrator 19.0.0, SVG Export Plug-In . SVG Version: 6.00 Build 0)  -->
<svg version="1.1" id="Ebene_1" xmlns="http://www.w3.org/2000/svg" xmlns:xlink="http://www.w3.org/1999/xlink" x="0px" y="0px"
	 viewBox="0 0 841.9 595.3" style="enable-background:new 0 0 841.9 595.3;" xml:space="preserve">
<style type="text/css">
	.st0{fill:#FFFFFF;}
	.st1{fill:#B2B2B2;}
</style>
<path id="XMLID_2_" class="st0" d="M471.8,288.3l0.1,0c0,0-26-23.1-26-38.6c0-15.5,11.4-36,22.5-36h1.8c5.2,0,9.4-4.2,9.4-9.4
	c0-5.2-4.2-9.4-9.4-9.4h-98.9c-5.2,0-9.4,4.2-9.4,9.4c0,5.2,4.2,9.4,9.4,9.4h0.7c11.1,0,22.5,20.5,22.5,36c0,15.5-26,38.6-26,38.6
	l0.3,0c-13.5,13.3-21.9,31.8-21.9,52.3c0,40.5,32.8,73.4,73.4,73.4c40.5,0,73.4-32.8,73.4-73.4C493.7,320.1,485.3,301.6,471.8,288.3
	z"/>
<path id="XMLID_9_" class="st1" d="M471.8,288.3l0.1,0c0,0-26-23.1-26-38.6h-51.4c0,15.5-26,38.6-26,38.6l0.3,0
	c-13.5,13.3-21.9,31.8-21.9,52.3c0,40.5,32.8,73.4,73.4,73.4c40.5,0,73.4-32.8,73.4-73.4C493.7,320.1,485.3,301.6,471.8,288.3z"/>
<g>
	<g>
		<path id="XMLID_5_" d="M420.3,415.4c-41.3,0-74.9-33.6-74.9-74.9c0-18.9,6.9-36.6,19.6-50.5l2.6-2.9c0.3-0.2,25.5-22.8,25.5-37.5
			c0-15.8-11.4-34.5-21-34.5h-0.7c-6,0-10.9-4.9-10.9-10.9s4.9-10.9,10.9-10.9h98.9c6,0,10.9,4.9,10.9,10.9s-4.9,10.9-10.9,10.9
			h-1.8c-9.6,0-21,18.7-21,34.5c0,14.7,25.2,37.2,25.5,37.5l2.7,2.9c12.7,13.8,19.6,31.6,19.6,50.5
			C495.2,381.8,461.6,415.4,420.3,415.4z M372.9,286.4l-3,2.9c-13.9,13.6-21.5,31.8-21.5,51.2c0,39.6,32.2,71.9,71.9,71.9
			c39.6,0,71.9-32.2,71.9-71.9c0-19.4-7.6-37.6-21.5-51.2l-2.1-2.1c-6.5-6.2-24.1-24.2-24.1-37.5c0-16,11.9-37.5,24-37.5h1.8
			c4.4,0,7.9-3.6,7.9-7.9s-3.6-7.9-7.9-7.9h-98.9c-4.4,0-7.9,3.6-7.9,7.9s3.6,7.9,7.9,7.9h0.7c12.1,0,24,21.5,24,37.5
			c0,12.8-16.2,29.9-23.3,36.7L372.9,286.4z"/>
	</g>
</g>
<g>
	<g id="XMLID_3_">
		<path class="st0" d="M440.2,295.7c13,5.3,21.5,15.1,23.4,29.2c0.9,6.3,10.5,3.6,9.6-2.7c-2.4-17.6-14.4-29.6-30.4-36.1
			C436.9,283.6,434.3,293.3,440.2,295.7L440.2,295.7z"/>
	</g>
</g>
</svg>
