<?xml version="1.0" encoding="utf-8"?>
<!-- Generator: Adobe Illustrator 19.0.0, SVG Export Plug-In . SVG Version: 6.00 Build 0)  -->
<svg version="1.1" xmlns="http://www.w3.org/2000/svg" xmlns:xlink="http://www.w3.org/1999/xlink" x="0px" y="0px"
	 viewBox="0 0 841.9 595.3" style="enable-background:new 0 0 841.9 595.3;" xml:space="preserve">
<style type="text/css">
	.st0{fill:#683C11;}
	.st1{fill:#432918;}
	.st2{fill:#C4A78C;}
	.st3{fill:#747989;}
	.st4{fill:#AF694A;}
	.st5{fill:#CCCA9A;}
	.st6{fill:#634E42;}
	.st7{clip-path:url(#SVGID_2_);}
	.st8{fill:#A3A2A0;}
	.st9{fill:#0A3820;}
	.st10{fill:#F9B233;}
	.st11{fill:#631318;}
	.st12{fill:none;stroke:#B17F4A;stroke-width:0.5;stroke-miterlimit:10;}
</style>
<g id="Besen">
	<g id="XMLID_3_">
		<path id="XMLID_7_" class="st0" d="M361.9,327.2c-2.1,0-4-1.3-4.7-3.4c-0.9-2.6,0.5-5.5,3.1-6.4L578,242.1
			c2.6-0.9,5.5,0.5,6.4,3.1c0.9,2.6-0.5,5.5-3.1,6.4l-217.7,75.4C363,327.1,362.5,327.2,361.9,327.2z"/>
	</g>
	<g id="XMLID_5_">
		<path class="st1" d="M369.6,307.1c0,0-7.1,7.6-12.1,9.5c-7.7,3-41.2-0.5-53.3,3.8c-14.1,5-34.5,20.1-49.9,37.1c0,0,41,10,62.3,0.3
			c19.1-8.6,32.8-24.8,41.2-27.9c6.2-2.2,22.9-4.1,22.9-4.1s-4-2.8-4.1-4.5s-0.1-6.2-1.6-7.1c-1.5-0.9-4.2-1.1-4.7-2.4
			C369.9,310.5,369.6,307.1,369.6,307.1z"/>
	</g>
	<g id="XMLID_10_">
		<path d="M354.9,316.1l4.2,14.3c0.3,1-0.3,2-1.3,2.3l0,0c-1,0.3-2-0.3-2.3-1.3l-4.2-14.3c-0.3-1,0.3-2,1.3-2.3l0,0
			C353.5,314.6,354.6,315.1,354.9,316.1z"/>
	</g>
</g>
<g id="Gesicht">
	<g id="XMLID_137_">
		<path class="st2" d="M495.2,167.3c-2.5,2.3-1.7,7-4.6,8.8c-3.7,2.3-9.3-3.5-11.1,0.4c-0.6,1.2,0,7.6,0,7.6
			c-2.4,0.6-10.1-4.8-12.2-6.2c-2.6-1.7-9.6-2.3-12.6-3c0,0,6.3-6.2,6.1-10.7c-0.2-4.5-2.5-14.9,5.1-26.9c6.3-10,18.5-11,26.9-6.8
			c8,3.9,9.3,10.3,9.6,15c0.3,3.7-1.9,10.9-2.5,11.8c-2,3.2-0.4,6.8-0.7,9C498.1,167.7,496.5,166.1,495.2,167.3z"/>
	</g>
	<g id="XMLID_130_">
		<g id="XMLID_6_">
			<path class="st3" d="M493.4,157.3c-0.3,1.3,1.3,2.6,2.4,1.6c0.9-0.8,0.5-2.4-0.7-2.6c-0.5-0.1-1.1,0.2-1.2,0.7
				c-0.1,0.5,0.2,1.1,0.7,1.2c-0.1,0-0.3-0.3-0.3-0.4c0-0.6,1.2-0.7,1,0C495.6,156.6,493.7,156,493.4,157.3L493.4,157.3z"/>
		</g>
	</g>
	<g id="XMLID_123_">
		<g id="XMLID_4_">
			<path class="st4" d="M489.5,168.6c1.1,0.6,2.3,1,3.4,1.6c0.9,0.4,1.6-0.9,0.8-1.3c-1.1-0.6-2.3-1-3.4-1.6
				C489.4,166.8,488.7,168.1,489.5,168.6L489.5,168.6z"/>
		</g>
	</g>
</g>
<g id="Frisur">
	<g id="XMLID_1_">
		<g id="XMLID_17_">
			<path class="st5" d="M504.3,146c1.3-11.1-6.9-15.7-12.5-17.9c-12.1-4.7-26.9,0.5-31.8,13.2c-3.8,9.9-0.9,13.9-5,20.7
				c-1.8,3-2,4.4-1.7,5.8c1.3-2,5.2-2.4,6.7-4.2c-1.5,0.8-2.6,2.4-3.2,4.4c0,0,5.1-0.8,7.6-4.7c-0.2,0.9,0,2.1-2.2,5
				c4.5-1.5,5-3.9,5.6-5.1c-0.2,3.3,3.1,5.5,3.6,7.8c1.2-1.5,0-11.8,4.9-17.8c2.5-3.1,7.4-2.8,7.4-2.8c8.4,1.1,14.6-6,14.4-12.5
				c4.4,2.8,3.6,11.6,4,12.5C502.6,151.5,504,148.6,504.3,146z"/>
		</g>
		<g id="XMLID_16_">
			<path class="st5" d="M502.8,156.3C502.8,156.3,502.8,156.3,502.8,156.3C502.8,156.3,502.8,156.3,502.8,156.3z"/>
		</g>
	</g>
</g>
<g id="Bein">
	<g id="XMLID_57_">
		<path class="st6" d="M481.8,206.8L449.5,270l17.6,47.3c0,0,6,15.4-1,20.8c-5.6,4.3-58.1,13.2-70.5,23.7c-6.1,5.1-5.6,9-9.1,21.6
			c-3.5,12.5-14.5,12.9-15.7,1.2c-1.2-11.7-2.6-22.3-3.6-33c-0.8-8.8,7-10.2,10.7-10.2c2.3,0,7.6,0.9,9.8,0.5
			c9.4-1.4,34.6-16,34.6-16L403,288.9l-5.2-25.8l40-72.1l15.6-13.3l15.1,4.6l7.3,12.2C475.8,194.5,480.1,208.9,481.8,206.8z"/>
	</g>
</g>
<g id="Socken__x26__Schuhe">
	<g id="XMLID_88_">
		<defs>
			<path id="SVGID_1_" d="M443.5,345c-4.2,1.1-8.6,2.2-13.1,3.4c-14.4,3.9-28.9,8.4-34.7,13.3c-6.1,5.1-5.6,9-9.1,21.6
				c-3.5,12.5-14.5,12.9-15.7,1.2c-1.2-11.7-2.6-22.3-3.6-33c-0.8-8.8,7-10.2,10.7-10.2c2.3,0,7.6,0.9,9.8,0.5
				c9.4-1.4,34.6-16,34.6-16l14.2-4.3C439.9,333.1,443.1,345.2,443.5,345z"/>
		</defs>
		<clipPath id="SVGID_2_">
			<use xlink:href="#SVGID_1_"  style="overflow:visible;"/>
		</clipPath>
		<g id="XMLID_115_" class="st7">
			
				<rect x="390.4" y="348.6" transform="matrix(0.277 0.9609 -0.9609 0.277 647.2265 -156.6664)" class="st8" width="74.7" height="6.3"/>
		</g>
		<g id="XMLID_114_" class="st7">
			
				<rect x="400.3" y="341.6" transform="matrix(0.277 0.9609 -0.9609 0.277 651.6672 -168.31)" class="st9" width="74.7" height="14.5"/>
		</g>
		<g id="XMLID_113_" class="st7">
			
				<rect x="378.2" y="352.1" transform="matrix(0.277 0.9609 -0.9609 0.277 641.817 -142.4826)" class="st8" width="74.7" height="6.3"/>
		</g>
		<g id="XMLID_112_" class="st7">
			
				<rect x="384.3" y="350.3" transform="matrix(0.277 0.9609 -0.9609 0.277 644.5125 -149.5501)" class="st9" width="74.7" height="6.3"/>
		</g>
		<g id="XMLID_111_" class="st7">
			
				<rect x="366.1" y="355.6" transform="matrix(0.277 0.9609 -0.9609 0.277 636.4181 -128.3264)" class="st8" width="74.7" height="6.3"/>
		</g>
		<g id="XMLID_110_" class="st7">
			
				<rect x="372.2" y="353.8" transform="matrix(0.277 0.9609 -0.9609 0.277 639.1135 -135.3939)" class="st9" width="74.7" height="6.3"/>
		</g>
		<g id="XMLID_109_" class="st7">
			
				<rect x="354" y="359.1" transform="matrix(0.277 0.9609 -0.9609 0.277 631.0086 -114.1425)" class="st8" width="74.7" height="6.3"/>
		</g>
		<g id="XMLID_108_" class="st7">
			
				<rect x="360" y="357.3" transform="matrix(0.277 0.9609 -0.9609 0.277 633.704 -121.21)" class="st9" width="74.7" height="6.3"/>
		</g>
		<g id="XMLID_107_" class="st7">
			
				<rect x="341.8" y="362.6" transform="matrix(0.277 0.9609 -0.9609 0.277 625.5765 -99.8993)" class="st8" width="74.7" height="6.3"/>
		</g>
		<g id="XMLID_106_" class="st7">
			
				<rect x="347.9" y="360.8" transform="matrix(0.277 0.9609 -0.9609 0.277 628.2719 -106.9669)" class="st9" width="74.7" height="6.3"/>
		</g>
		<g id="XMLID_105_" class="st7">
			
				<rect x="329.7" y="366.1" transform="matrix(0.277 0.9609 -0.9609 0.277 620.167 -85.7155)" class="st8" width="74.7" height="6.3"/>
		</g>
		<g id="XMLID_104_" class="st7">
			
				<rect x="335.7" y="364.3" transform="matrix(0.277 0.9609 -0.9609 0.277 622.8624 -92.783)" class="st9" width="74.7" height="6.3"/>
		</g>
		<g id="XMLID_103_" class="st7">
			
				<rect x="317.6" y="369.6" transform="matrix(0.277 0.9609 -0.9609 0.277 614.7681 -71.5592)" class="st10" width="74.7" height="6.3"/>
		</g>
		<g id="XMLID_102_" class="st7">
			
				<rect x="323.6" y="367.8" transform="matrix(0.277 0.9609 -0.9609 0.277 617.4635 -78.6268)" class="st11" width="74.7" height="6.3"/>
		</g>
		<g id="XMLID_101_" class="st7">
			
				<rect x="305.5" y="373.1" transform="matrix(0.277 0.9609 -0.9609 0.277 609.3585 -57.3754)" class="st10" width="74.7" height="6.3"/>
		</g>
		<g id="XMLID_100_" class="st7">
			
				<rect x="311.5" y="371.3" transform="matrix(0.277 0.9609 -0.9609 0.277 612.054 -64.4429)" class="st11" width="74.7" height="6.3"/>
		</g>
	</g>
	<g id="XMLID_86_">
		<path class="st1" d="M395.3,363.8c-6.1,5.1-5.2,6.8-8.7,19.5c-3.5,12.5-14.5,12.9-15.7,1.2c-1.2-11.7-2.6-22.3-3.6-33
			c-0.8-8.8,7-10.2,10.7-10.2c2.3,0,8.2-0.2,10.4-0.6C388.4,340.7,395.2,363.7,395.3,363.8z"/>
	</g>
</g>
<g id="Umhang">
	<g id="XMLID_50_">
		<path class="st9" d="M470.6,175.5c9,4.1,18,15.2,11.8,32.7c-5.9,16.7-9.2,28.3-12.2,41.4c-5.6,24.4,18.4,44.1,22.4,60.5
			c-21.5-8.8-33.6,6.3-55.5,14.1c-24,8.5-47.4,6.4-58-14.6c-5.3-10.7-28.2-12.8-42.3-7c8.8-16.9,46.3-44.7,58.9-54.1
			c26.9-20.2,27.8-44,38.7-60.9C445.1,171.1,460.9,171,470.6,175.5z"/>
	</g>
</g>
<g id="Arm">
	<g id="XMLID_13_">
		<path class="st2" d="M455.2,213.9c0,0,1.7,31.3,5.5,43.1c1.5,4.6,5.1,6.3,9.2,7.2c12,2.6,57.9,6.4,57.9,6.4l1.4-12.2
			c0,0-36.2-7.4-46.4-9.1c-6.8-1.1-6-14.5-6-14.5l-7.3-29.4l-6.9-3.6L455.2,213.9z"/>
	</g>
	<g id="XMLID_52_">
		<path class="st12" d="M455,173.9"/>
	</g>
	<g id="XMLID_26_">
		<path class="st8" d="M444,201.8c-3.7-22.7,21.7-30,29.4-7.3c0,0,13.7,36.4,20.4,48c-15.4,1.2-26.3,3.7-44.7,13
			C448.4,235.9,444,201.8,444,201.8z"/>
	</g>
</g>
<g id="Ebene_4">
	<g id="XMLID_21_">
		<path class="st1" d="M538.2,257.1c0.3-1,1.3-1.6,2.1-1.9c0.7-0.3,0.7-1.5,0-1.9c-2.4-1.5-4.5-1.5-6.9-0.5c-1.6,0.7-2.8,1.5-4,2.7
			c-1.3,0.8-3.6,0.5-3.6,0.5c-1.7-0.4-7.9,15.1-5.7,16.2c2.7,1.3,11.2,1.8,16.3,2.6c9,1.4,14.4-12.5,10.9-11.4
			C544.4,264.1,541.8,258.4,538.2,257.1z"/>
	</g>
</g>
</svg>
