<?xml version="1.0" encoding="utf-8"?>
<!-- Generator: Adobe Illustrator 19.0.0, SVG Export Plug-In . SVG Version: 6.00 Build 0)  -->
<svg version="1.1" id="Ebene_1" xmlns="http://www.w3.org/2000/svg" xmlns:xlink="http://www.w3.org/1999/xlink" x="0px" y="0px"
	 viewBox="0 0 841.9 595.3" style="enable-background:new 0 0 841.9 595.3;" xml:space="preserve">
<style type="text/css">
	.st0{fill:#CCA014;}
</style>
<g id="XMLID_1_">
	<g id="XMLID_28_">
		<g id="XMLID_22_">
			<polygon class="st0" points="453.7,114.3 493.8,121.2 453.7,128.1 			"/>
		</g>
		<g id="XMLID_30_">
			<polygon points="453.7,105.6 493.8,112.5 453.7,119.4 			"/>
		</g>
	</g>
	<g id="XMLID_21_">
		<rect id="XMLID_32_" x="452.7" y="105.6" width="2" height="49.5"/>
	</g>
	<g id="XMLID_2_">
		<rect x="430" y="437" width="23.6" height="23.6"/>
	</g>
	<g id="XMLID_4_">
		<rect x="453.7" y="437" class="st0" width="23.6" height="23.6"/>
	</g>
	<g id="XMLID_6_">
		<rect x="430" y="413.4" class="st0" width="23.6" height="23.6"/>
	</g>
	<g id="XMLID_5_">
		<rect x="453.7" y="413.4" width="23.6" height="23.6"/>
	</g>
	<g id="XMLID_8_">
		<rect x="430" y="389.8" width="23.6" height="23.6"/>
	</g>
	<g id="XMLID_7_">
		<rect x="453.7" y="389.8" class="st0" width="23.6" height="23.6"/>
	</g>
	<g id="XMLID_10_">
		<rect x="430" y="366.2" class="st0" width="23.6" height="23.6"/>
	</g>
	<g id="XMLID_9_">
		<rect x="453.7" y="366.2" width="23.6" height="23.6"/>
	</g>
	<g id="XMLID_12_">
		<rect x="430" y="342.6" width="23.6" height="23.6"/>
	</g>
	<g id="XMLID_11_">
		<rect x="453.7" y="342.6" class="st0" width="23.6" height="23.6"/>
	</g>
	<g id="XMLID_14_">
		<rect x="430" y="318.9" class="st0" width="23.6" height="23.6"/>
	</g>
	<g id="XMLID_13_">
		<rect x="453.7" y="318.9" width="23.6" height="23.6"/>
	</g>
	<g id="XMLID_16_">
		<rect x="430" y="295.3" width="23.6" height="23.6"/>
	</g>
	<g id="XMLID_15_">
		<rect x="453.7" y="295.3" class="st0" width="23.6" height="23.6"/>
	</g>
	<g id="XMLID_18_">
		<rect x="430" y="271.7" class="st0" width="23.6" height="23.6"/>
	</g>
	<g id="XMLID_17_">
		<rect x="453.7" y="271.7" width="23.6" height="23.6"/>
	</g>
	<g id="XMLID_20_">
		<rect x="430" y="248.1" width="23.6" height="23.6"/>
	</g>
	<g id="XMLID_19_">
		<rect x="453.7" y="248.1" class="st0" width="23.6" height="23.6"/>
	</g>
	<g id="XMLID_27_">
		<polygon class="st0" points="430,177.3 453.7,139.3 477.3,177.3 		"/>
	</g>
	<g id="XMLID_3_">
		<polygon points="430,177.3 464.5,156.8 477.3,177.3 		"/>
	</g>
	<g id="XMLID_29_">
		<polygon class="st0" points="453.7,177.3 430,177.3 453.7,196.2 		"/>
	</g>
	<g id="XMLID_26_">
		<polygon points="453.7,177.3 453.7,196.2 459.6,200.9 477.3,200.9 477.3,177.3 		"/>
	</g>
	<g id="XMLID_25_">
		<polygon class="st0" points="459.6,200.9 461.7,202.6 461.7,222.8 459.6,224.5 477.3,224.5 477.3,200.9 		"/>
	</g>
	<g id="XMLID_24_">
		<polygon points="459.6,224.5 453.7,229.2 453.7,248.1 477.3,248.1 477.3,224.5 		"/>
	</g>
	<g id="XMLID_23_">
		<polygon class="st0" points="430,248.1 453.7,248.1 453.7,229.2 		"/>
	</g>
</g>
</svg>
