<?xml version="1.0" encoding="utf-8"?>
<!-- Generator: Adobe Illustrator 19.0.0, SVG Export Plug-In . SVG Version: 6.00 Build 0)  -->
<svg version="1.1" id="Ebene_1" xmlns="http://www.w3.org/2000/svg" xmlns:xlink="http://www.w3.org/1999/xlink" x="0px" y="0px"
	 viewBox="0 0 841.9 595.3" style="enable-background:new 0 0 841.9 595.3;" xml:space="preserve">
<style type="text/css">
	.st0{fill:#F9B233;}
	.st1{fill:#631318;}
</style>
<g id="XMLID_414_">
	<g id="XMLID_441_">
		<g id="XMLID_443_">
			<polygon class="st0" points="412.8,129.7 453,136.6 412.8,143.5 			"/>
		</g>
		<g id="XMLID_442_">
			<polygon class="st1" points="412.8,121 453,127.9 412.8,134.8 			"/>
		</g>
	</g>
	<g id="XMLID_440_">
		<rect id="XMLID_2_" x="411.8" y="121" width="2" height="49.5"/>
	</g>
	<g id="XMLID_439_">
		<rect x="389.2" y="452.4" class="st1" width="23.6" height="23.6"/>
	</g>
	<g id="XMLID_438_">
		<rect x="412.8" y="452.4" class="st0" width="23.6" height="23.6"/>
	</g>
	<g id="XMLID_437_">
		<rect x="389.2" y="428.8" class="st0" width="23.6" height="23.6"/>
	</g>
	<g id="XMLID_436_">
		<rect x="412.8" y="428.8" class="st1" width="23.6" height="23.6"/>
	</g>
	<g id="XMLID_435_">
		<rect x="389.2" y="405.2" class="st1" width="23.6" height="23.6"/>
	</g>
	<g id="XMLID_434_">
		<rect x="412.8" y="405.2" class="st0" width="23.6" height="23.6"/>
	</g>
	<g id="XMLID_433_">
		<rect x="389.2" y="381.6" class="st0" width="23.6" height="23.6"/>
	</g>
	<g id="XMLID_432_">
		<rect x="412.8" y="381.6" class="st1" width="23.6" height="23.6"/>
	</g>
	<g id="XMLID_431_">
		<rect x="389.2" y="357.9" class="st1" width="23.6" height="23.6"/>
	</g>
	<g id="XMLID_430_">
		<rect x="412.8" y="357.9" class="st0" width="23.6" height="23.6"/>
	</g>
	<g id="XMLID_429_">
		<rect x="389.2" y="334.3" class="st0" width="23.6" height="23.6"/>
	</g>
	<g id="XMLID_428_">
		<rect x="412.8" y="334.3" class="st1" width="23.6" height="23.6"/>
	</g>
	<g id="XMLID_427_">
		<rect x="389.2" y="310.7" class="st1" width="23.6" height="23.6"/>
	</g>
	<g id="XMLID_426_">
		<rect x="412.8" y="310.7" class="st0" width="23.6" height="23.6"/>
	</g>
	<g id="XMLID_425_">
		<rect x="389.2" y="287.1" class="st0" width="23.6" height="23.6"/>
	</g>
	<g id="XMLID_424_">
		<rect x="412.8" y="287.1" class="st1" width="23.6" height="23.6"/>
	</g>
	<g id="XMLID_423_">
		<rect x="389.2" y="263.5" class="st1" width="23.6" height="23.6"/>
	</g>
	<g id="XMLID_422_">
		<rect x="412.8" y="263.5" class="st0" width="23.6" height="23.6"/>
	</g>
	<g id="XMLID_421_">
		<polygon class="st0" points="389.2,192.7 412.8,154.7 436.4,192.7 		"/>
	</g>
	<g id="XMLID_420_">
		<polygon class="st1" points="389.2,192.7 423.7,172.2 436.4,192.7 		"/>
	</g>
	<g id="XMLID_419_">
		<polygon class="st0" points="412.8,192.7 389.2,192.7 412.8,211.5 		"/>
	</g>
	<g id="XMLID_418_">
		<polygon class="st1" points="412.8,192.7 412.8,211.5 418.7,216.3 436.4,216.3 436.4,192.7 		"/>
	</g>
	<g id="XMLID_417_">
		<polygon class="st0" points="418.7,216.3 420.8,218 420.8,238.2 418.7,239.9 436.4,239.9 436.4,216.3 		"/>
	</g>
	<g id="XMLID_416_">
		<polygon class="st1" points="418.7,239.9 412.8,244.6 412.8,263.5 436.4,263.5 436.4,239.9 		"/>
	</g>
	<g id="XMLID_415_">
		<polygon class="st0" points="389.2,263.5 412.8,263.5 412.8,244.6 		"/>
	</g>
</g>
</svg>
