<?xml version="1.0" encoding="utf-8"?>
<!-- Generator: Adobe Illustrator 19.0.0, SVG Export Plug-In . SVG Version: 6.00 Build 0)  -->
<svg version="1.1" id="Ebene_1" xmlns="http://www.w3.org/2000/svg" xmlns:xlink="http://www.w3.org/1999/xlink" x="0px" y="0px"
	 viewBox="0 0 841.9 595.3" style="enable-background:new 0 0 841.9 595.3;" xml:space="preserve">
<style type="text/css">
	.st0{fill:#A3A2A0;}
	.st1{fill:#0A3820;}
</style>
<g id="XMLID_182_">
	<g id="XMLID_209_">
		<g id="XMLID_211_">
			<polygon class="st0" points="413.1,129.7 453.3,136.6 413.1,143.5 			"/>
		</g>
		<g id="XMLID_210_">
			<polygon class="st1" points="413.1,121 453.3,127.9 413.1,134.8 			"/>
		</g>
	</g>
	<g id="XMLID_208_">
		<rect id="XMLID_2_" x="412.1" y="121" width="2" height="49.5"/>
	</g>
	<g id="XMLID_207_">
		<rect x="389.5" y="452.4" class="st1" width="23.6" height="23.6"/>
	</g>
	<g id="XMLID_206_">
		<rect x="413.1" y="452.4" class="st0" width="23.6" height="23.6"/>
	</g>
	<g id="XMLID_205_">
		<rect x="389.5" y="428.8" class="st0" width="23.6" height="23.6"/>
	</g>
	<g id="XMLID_204_">
		<rect x="413.1" y="428.8" class="st1" width="23.6" height="23.6"/>
	</g>
	<g id="XMLID_203_">
		<rect x="389.5" y="405.2" class="st1" width="23.6" height="23.6"/>
	</g>
	<g id="XMLID_202_">
		<rect x="413.1" y="405.2" class="st0" width="23.6" height="23.6"/>
	</g>
	<g id="XMLID_201_">
		<rect x="389.5" y="381.6" class="st0" width="23.6" height="23.6"/>
	</g>
	<g id="XMLID_200_">
		<rect x="413.1" y="381.6" class="st1" width="23.6" height="23.6"/>
	</g>
	<g id="XMLID_199_">
		<rect x="389.5" y="357.9" class="st1" width="23.6" height="23.6"/>
	</g>
	<g id="XMLID_198_">
		<rect x="413.1" y="357.9" class="st0" width="23.6" height="23.6"/>
	</g>
	<g id="XMLID_197_">
		<rect x="389.5" y="334.3" class="st0" width="23.6" height="23.6"/>
	</g>
	<g id="XMLID_196_">
		<rect x="413.1" y="334.3" class="st1" width="23.6" height="23.6"/>
	</g>
	<g id="XMLID_195_">
		<rect x="389.5" y="310.7" class="st1" width="23.6" height="23.6"/>
	</g>
	<g id="XMLID_194_">
		<rect x="413.1" y="310.7" class="st0" width="23.6" height="23.6"/>
	</g>
	<g id="XMLID_193_">
		<rect x="389.5" y="287.1" class="st0" width="23.6" height="23.6"/>
	</g>
	<g id="XMLID_192_">
		<rect x="413.1" y="287.1" class="st1" width="23.6" height="23.6"/>
	</g>
	<g id="XMLID_191_">
		<rect x="389.5" y="263.5" class="st1" width="23.6" height="23.6"/>
	</g>
	<g id="XMLID_190_">
		<rect x="413.1" y="263.5" class="st0" width="23.6" height="23.6"/>
	</g>
	<g id="XMLID_189_">
		<polygon class="st0" points="389.5,192.7 413.1,154.7 436.7,192.7 		"/>
	</g>
	<g id="XMLID_188_">
		<polygon class="st1" points="389.5,192.7 424,172.2 436.7,192.7 		"/>
	</g>
	<g id="XMLID_187_">
		<polygon class="st0" points="413.1,192.7 389.5,192.7 413.1,211.5 		"/>
	</g>
	<g id="XMLID_186_">
		<polygon class="st1" points="413.1,192.7 413.1,211.5 419,216.3 436.7,216.3 436.7,192.7 		"/>
	</g>
	<g id="XMLID_185_">
		<polygon class="st0" points="419,216.3 421.2,218 421.2,238.2 419,239.9 436.7,239.9 436.7,216.3 		"/>
	</g>
	<g id="XMLID_184_">
		<polygon class="st1" points="419,239.9 413.1,244.6 413.1,263.5 436.7,263.5 436.7,239.9 		"/>
	</g>
	<g id="XMLID_183_">
		<polygon class="st0" points="389.5,263.5 413.1,263.5 413.1,244.6 		"/>
	</g>
</g>
</svg>
