<?xml version="1.0" encoding="utf-8"?>
<!-- Generator: Adobe Illustrator 19.0.0, SVG Export Plug-In . SVG Version: 6.00 Build 0)  -->
<svg version="1.1" id="Ebene_1" xmlns="http://www.w3.org/2000/svg" xmlns:xlink="http://www.w3.org/1999/xlink" x="0px" y="0px"
	 viewBox="0 0 841.9 595.3" style="enable-background:new 0 0 841.9 595.3;" xml:space="preserve">
<style type="text/css">
	.st0{fill:#869ED2;}
	.st1{fill:#202346;}
</style>
<g id="XMLID_298_">
	<g id="XMLID_325_">
		<g id="XMLID_327_">
			<polygon class="st0" points="412.5,129.7 452.6,136.6 412.5,143.5 			"/>
		</g>
		<g id="XMLID_326_">
			<polygon class="st1" points="412.5,121 452.6,127.9 412.5,134.8 			"/>
		</g>
	</g>
	<g id="XMLID_324_">
		<rect id="XMLID_2_" x="411.5" y="121" width="2" height="49.5"/>
	</g>
	<g id="XMLID_323_">
		<rect x="388.9" y="452.4" class="st1" width="23.6" height="23.6"/>
	</g>
	<g id="XMLID_322_">
		<rect x="412.5" y="452.4" class="st0" width="23.6" height="23.6"/>
	</g>
	<g id="XMLID_321_">
		<rect x="388.9" y="428.8" class="st0" width="23.6" height="23.6"/>
	</g>
	<g id="XMLID_320_">
		<rect x="412.5" y="428.8" class="st1" width="23.6" height="23.6"/>
	</g>
	<g id="XMLID_319_">
		<rect x="388.9" y="405.2" class="st1" width="23.6" height="23.6"/>
	</g>
	<g id="XMLID_318_">
		<rect x="412.5" y="405.2" class="st0" width="23.6" height="23.6"/>
	</g>
	<g id="XMLID_317_">
		<rect x="388.9" y="381.6" class="st0" width="23.6" height="23.6"/>
	</g>
	<g id="XMLID_316_">
		<rect x="412.5" y="381.6" class="st1" width="23.6" height="23.6"/>
	</g>
	<g id="XMLID_315_">
		<rect x="388.9" y="357.9" class="st1" width="23.6" height="23.6"/>
	</g>
	<g id="XMLID_314_">
		<rect x="412.5" y="357.9" class="st0" width="23.6" height="23.6"/>
	</g>
	<g id="XMLID_313_">
		<rect x="388.9" y="334.3" class="st0" width="23.6" height="23.6"/>
	</g>
	<g id="XMLID_312_">
		<rect x="412.5" y="334.3" class="st1" width="23.6" height="23.6"/>
	</g>
	<g id="XMLID_311_">
		<rect x="388.9" y="310.7" class="st1" width="23.6" height="23.6"/>
	</g>
	<g id="XMLID_310_">
		<rect x="412.5" y="310.7" class="st0" width="23.6" height="23.6"/>
	</g>
	<g id="XMLID_309_">
		<rect x="388.9" y="287.1" class="st0" width="23.6" height="23.6"/>
	</g>
	<g id="XMLID_308_">
		<rect x="412.5" y="287.1" class="st1" width="23.6" height="23.6"/>
	</g>
	<g id="XMLID_307_">
		<rect x="388.9" y="263.5" class="st1" width="23.6" height="23.6"/>
	</g>
	<g id="XMLID_306_">
		<rect x="412.5" y="263.5" class="st0" width="23.6" height="23.6"/>
	</g>
	<g id="XMLID_305_">
		<polygon class="st0" points="388.9,192.7 412.5,154.7 436.1,192.7 		"/>
	</g>
	<g id="XMLID_304_">
		<polygon class="st1" points="388.9,192.7 423.4,172.2 436.1,192.7 		"/>
	</g>
	<g id="XMLID_303_">
		<polygon class="st0" points="412.5,192.7 388.9,192.7 412.5,211.5 		"/>
	</g>
	<g id="XMLID_302_">
		<polygon class="st1" points="412.5,192.7 412.5,211.5 418.4,216.3 436.1,216.3 436.1,192.7 		"/>
	</g>
	<g id="XMLID_301_">
		<polygon class="st0" points="418.4,216.3 420.5,218 420.5,238.2 418.4,239.9 436.1,239.9 436.1,216.3 		"/>
	</g>
	<g id="XMLID_300_">
		<polygon class="st1" points="418.4,239.9 412.5,244.6 412.5,263.5 436.1,263.5 436.1,239.9 		"/>
	</g>
	<g id="XMLID_299_">
		<polygon class="st0" points="388.9,263.5 412.5,263.5 412.5,244.6 		"/>
	</g>
</g>
</svg>
